<?xml version="1.0" encoding="UTF-8" standalone="no"?>
<!DOCTYPE svg PUBLIC "-//W3C//DTD SVG 1.1//EN"
 "http://www.w3.org/Graphics/SVG/1.1/DTD/svg11.dtd">
<!-- Generated by graphviz version 2.28.0 (20110507.0327)
 -->
<!-- Title: G Pages: 1 -->
<svg width="520pt" height="1230pt"
 viewBox="0.00 0.00 520.00 1230.00" xmlns="http://www.w3.org/2000/svg" xmlns:xlink="http://www.w3.org/1999/xlink">
<g id="graph1" class="graph" transform="scale(1 1) rotate(0) translate(4 1226)">
<title>G</title>
<polygon fill="white" stroke="white" points="-4,5 -4,-1226 517,-1226 517,5 -4,5"/>
<g id="graph2" class="cluster"><title>cluster_PEAR2</title>
<polyline fill="none" stroke="gray" points="63,-422 492,-422 "/>
<path fill="none" stroke="gray" d="M492,-422C498,-422 504,-428 504,-434"/>
<polyline fill="none" stroke="gray" points="504,-434 504,-1202 "/>
<path fill="none" stroke="gray" d="M504,-1202C504,-1208 498,-1214 492,-1214"/>
<polyline fill="none" stroke="gray" points="492,-1214 63,-1214 "/>
<path fill="none" stroke="gray" d="M63,-1214C57,-1214 51,-1208 51,-1202"/>
<polyline fill="none" stroke="gray" points="51,-1202 51,-434 "/>
<path fill="none" stroke="gray" d="M51,-434C51,-428 57,-422 63,-422"/>
<text text-anchor="middle" x="277.5" y="-1201.2" font-family="Times New Roman,serif" font-size="11.00" fill="gray">PEAR2</text>
</g>
<g id="graph3" class="cluster"><title>cluster_PEAR2\Net</title>
<polyline fill="none" stroke="gray" points="71,-430 484,-430 "/>
<path fill="none" stroke="gray" d="M484,-430C490,-430 496,-436 496,-442"/>
<polyline fill="none" stroke="gray" points="496,-442 496,-1174 "/>
<path fill="none" stroke="gray" d="M496,-1174C496,-1180 490,-1186 484,-1186"/>
<polyline fill="none" stroke="gray" points="484,-1186 71,-1186 "/>
<path fill="none" stroke="gray" d="M71,-1186C65,-1186 59,-1180 59,-1174"/>
<polyline fill="none" stroke="gray" points="59,-1174 59,-442 "/>
<path fill="none" stroke="gray" d="M59,-442C59,-436 65,-430 71,-430"/>
<text text-anchor="middle" x="277.5" y="-1173.2" font-family="Times New Roman,serif" font-size="11.00" fill="gray">Net</text>
</g>
<g id="graph4" class="cluster"><title>cluster_PEAR2\Net\RouterOS</title>
<polyline fill="none" stroke="gray" points="79,-438 476,-438 "/>
<path fill="none" stroke="gray" d="M476,-438C482,-438 488,-444 488,-450"/>
<polyline fill="none" stroke="gray" points="488,-450 488,-1146 "/>
<path fill="none" stroke="gray" d="M488,-1146C488,-1152 482,-1158 476,-1158"/>
<polyline fill="none" stroke="gray" points="476,-1158 79,-1158 "/>
<path fill="none" stroke="gray" d="M79,-1158C73,-1158 67,-1152 67,-1146"/>
<polyline fill="none" stroke="gray" points="67,-1146 67,-450 "/>
<path fill="none" stroke="gray" d="M67,-450C67,-444 73,-438 79,-438"/>
<text text-anchor="middle" x="277.5" y="-1145.2" font-family="Times New Roman,serif" font-size="11.00" fill="gray">RouterOS</text>
</g>
<!-- \\PEAR2\\Net\\RouterOS\\Client -->
<g id="node4" class="node"><title>\\PEAR2\\Net\\RouterOS\\Client</title>
<a xlink:href="Client.html" xlink:title="Client" target="_parent">
<polygon fill="none" stroke="black" points="418.5,-1130 361.5,-1130 361.5,-1094 418.5,-1094 418.5,-1130"/>
<text text-anchor="middle" x="390" y="-1109.2" font-family="Courier,monospace" font-size="11.00">Client</text>
</a>
</g>
<!-- \\PEAR2\\Net\\RouterOS\\Communicator -->
<g id="node5" class="node"><title>\\PEAR2\\Net\\RouterOS\\Communicator</title>
<a xlink:href="Communicator.html" xlink:title="Communicator" target="_parent">
<polygon fill="none" stroke="black" points="439,-1076 341,-1076 341,-1040 439,-1040 439,-1076"/>
<text text-anchor="middle" x="390" y="-1055.2" font-family="Courier,monospace" font-size="11.00">Communicator</text>
</a>
</g>
<!-- \\PEAR2\\Net\\RouterOS\\DataFlowException -->
<g id="node6" class="node"><title>\\PEAR2\\Net\\RouterOS\\DataFlowException</title>
<a xlink:href="DataFlowException.html" xlink:title="DataFlowException" target="_parent">
<polygon fill="none" stroke="black" points="455.5,-860 324.5,-860 324.5,-824 455.5,-824 455.5,-860"/>
<text text-anchor="middle" x="390" y="-839.2" font-family="Courier,monospace" font-size="11.00">DataFlowException</text>
</a>
</g>
<!-- \\PEAR2\\Net\\RouterOS\\Exception -->
<g id="node7" class="node"><title>\\PEAR2\\Net\\RouterOS\\Exception</title>
<a xlink:href="Exception.html" xlink:title="Exception" target="_parent">
<polygon fill="none" stroke="black" points="152.5,-671 75.5,-671 75.5,-635 152.5,-635 152.5,-671"/>
<text text-anchor="middle" x="114" y="-650.2" font-family="Courier,monospace" font-size="11.00">Exception</text>
</a>
</g>
<!-- \\PEAR2\\Net\\RouterOS\\DataFlowException&#45;&gt;\\PEAR2\\Net\\RouterOS\\Exception -->
<g id="edge22" class="edge"><title>\\PEAR2\\Net\\RouterOS\\DataFlowException&#45;&gt;\\PEAR2\\Net\\RouterOS\\Exception</title>
<path fill="none" stroke="black" stroke-dasharray="1,5" d="M324.448,-826.003C315.99,-822.881 307.623,-819.233 300,-815 233.55,-778.103 170.05,-714.174 137.535,-678.658"/>
<polygon fill="none" stroke="black" points="140.009,-676.175 130.702,-671.111 134.82,-680.873 140.009,-676.175"/>
</g>
<!-- \\RuntimeException -->
<g id="node21" class="node"><title>\\RuntimeException</title>
<ellipse fill="none" stroke="black" cx="114" cy="-396" rx="79.8859" ry="18"/>
<text text-anchor="middle" x="114" y="-392.3" font-family="Times New Roman,serif" font-size="14.00" fill="gray">\RuntimeException</text>
</g>
<!-- \\PEAR2\\Net\\RouterOS\\DataFlowException&#45;&gt;\\RuntimeException -->
<g id="edge6" class="edge"><title>\\PEAR2\\Net\\RouterOS\\DataFlowException&#45;&gt;\\RuntimeException</title>
<path fill="none" stroke="black" d="M324.204,-831.627C315.077,-827.699 306.579,-822.33 300,-815 184.884,-686.758 341.189,-563.946 228,-434 218.225,-422.778 205.026,-414.861 191.097,-409.28"/>
<polygon fill="none" stroke="black" points="191.966,-405.872 181.371,-405.776 189.594,-412.458 191.966,-405.872"/>
</g>
<!-- \\PEAR2\\Net\\RouterOS\\InvalidArgumentException -->
<g id="node8" class="node"><title>\\PEAR2\\Net\\RouterOS\\InvalidArgumentException</title>
<a xlink:href="InvalidArgumentException.html" xlink:title="InvalidArgumentException" target="_parent">
<polygon fill="none" stroke="black" points="479.5,-698 300.5,-698 300.5,-662 479.5,-662 479.5,-698"/>
<text text-anchor="middle" x="390" y="-677.2" font-family="Courier,monospace" font-size="11.00">InvalidArgumentException</text>
</a>
</g>
<!-- \\PEAR2\\Net\\RouterOS\\InvalidArgumentException&#45;&gt;\\PEAR2\\Net\\RouterOS\\Exception -->
<g id="edge24" class="edge"><title>\\PEAR2\\Net\\RouterOS\\InvalidArgumentException&#45;&gt;\\PEAR2\\Net\\RouterOS\\Exception</title>
<path fill="none" stroke="black" stroke-dasharray="1,5" d="M300.418,-671.271C254.685,-666.765 200.69,-661.444 162.8,-657.71"/>
<polygon fill="none" stroke="black" points="162.855,-654.199 152.56,-656.701 162.168,-661.165 162.855,-654.199"/>
</g>
<!-- \\InvalidArgumentException -->
<g id="node23" class="node"><title>\\InvalidArgumentException</title>
<ellipse fill="none" stroke="black" cx="114" cy="-342" rx="109.681" ry="18"/>
<text text-anchor="middle" x="114" y="-338.3" font-family="Times New Roman,serif" font-size="14.00" fill="gray">\InvalidArgumentException</text>
</g>
<!-- \\PEAR2\\Net\\RouterOS\\InvalidArgumentException&#45;&gt;\\InvalidArgumentException -->
<g id="edge8" class="edge"><title>\\PEAR2\\Net\\RouterOS\\InvalidArgumentException&#45;&gt;\\InvalidArgumentException</title>
<path fill="none" stroke="black" d="M310.795,-661.95C306.877,-659.353 303.234,-656.387 300,-653 210.078,-558.819 320.707,-460.441 228,-369 223.335,-364.399 218.035,-360.531 212.335,-357.284"/>
<polygon fill="none" stroke="black" points="213.595,-354.001 203.084,-352.676 210.475,-360.267 213.595,-354.001"/>
</g>
<!-- \\PEAR2\\Net\\RouterOS\\LengthException -->
<g id="node9" class="node"><title>\\PEAR2\\Net\\RouterOS\\LengthException</title>
<a xlink:href="LengthtException.html" xlink:title="LengthException" target="_parent">
<polygon fill="none" stroke="black" points="449,-644 331,-644 331,-608 449,-608 449,-644"/>
<text text-anchor="middle" x="390" y="-623.2" font-family="Courier,monospace" font-size="11.00">LengthException</text>
</a>
</g>
<!-- \\PEAR2\\Net\\RouterOS\\LengthException&#45;&gt;\\PEAR2\\Net\\RouterOS\\Exception -->
<g id="edge26" class="edge"><title>\\PEAR2\\Net\\RouterOS\\LengthException&#45;&gt;\\PEAR2\\Net\\RouterOS\\Exception</title>
<path fill="none" stroke="black" stroke-dasharray="1,5" d="M330.892,-631.726C280.944,-636.648 209.775,-643.661 163.003,-648.27"/>
<polygon fill="none" stroke="black" points="162.437,-644.808 152.829,-649.272 163.124,-651.775 162.437,-644.808"/>
</g>
<!-- \\LengthException -->
<g id="node25" class="node"><title>\\LengthException</title>
<ellipse fill="none" stroke="black" cx="114" cy="-288" rx="74.9875" ry="18"/>
<text text-anchor="middle" x="114" y="-284.3" font-family="Times New Roman,serif" font-size="14.00" fill="gray">\LengthException</text>
</g>
<!-- \\PEAR2\\Net\\RouterOS\\LengthException&#45;&gt;\\LengthException -->
<g id="edge10" class="edge"><title>\\PEAR2\\Net\\RouterOS\\LengthException&#45;&gt;\\LengthException</title>
<path fill="none" stroke="black" d="M330.982,-617.73C319.464,-613.703 308.363,-607.759 300,-599 210.078,-504.819 320.707,-406.441 228,-315 219.048,-306.171 207.756,-300.04 195.794,-295.818"/>
<polygon fill="none" stroke="black" points="196.676,-292.428 186.089,-292.826 194.614,-299.117 196.676,-292.428"/>
</g>
<!-- \\PEAR2\\Net\\RouterOS\\Message -->
<g id="node10" class="node"><title>\\PEAR2\\Net\\RouterOS\\Message</title>
<a xlink:href="Message.html" xlink:title="Message" target="_parent">
<polygon fill="none" stroke="black" points="146,-995 82,-995 82,-959 146,-959 146,-995"/>
<text text-anchor="middle" x="114" y="-974.2" font-family="Courier,monospace" font-size="11.00">Message</text>
</a>
</g>
<!-- \\PEAR2\\Net\\RouterOS\\NotSupportedException -->
<g id="node11" class="node"><title>\\PEAR2\\Net\\RouterOS\\NotSupportedException</title>
<a xlink:href="NotSupportedException.html" xlink:title="NotSupportedException" target="_parent">
<polygon fill="none" stroke="black" points="469,-590 311,-590 311,-554 469,-554 469,-590"/>
<text text-anchor="middle" x="390" y="-569.2" font-family="Courier,monospace" font-size="11.00">NotSupportedException</text>
</a>
</g>
<!-- \\PEAR2\\Net\\RouterOS\\NotSupportedException&#45;&gt;\\PEAR2\\Net\\RouterOS\\Exception -->
<g id="edge28" class="edge"><title>\\PEAR2\\Net\\RouterOS\\NotSupportedException&#45;&gt;\\PEAR2\\Net\\RouterOS\\Exception</title>
<path fill="none" stroke="black" stroke-dasharray="1,5" d="M325.951,-590.067C317.177,-592.888 308.323,-595.902 300,-599 267.182,-611.217 261.399,-620.476 228,-631 206.964,-637.629 183.065,-642.631 162.682,-646.176"/>
<polygon fill="none" stroke="black" points="161.967,-642.747 152.682,-647.85 163.123,-649.651 161.967,-642.747"/>
</g>
<!-- \\Exception -->
<g id="node27" class="node"><title>\\Exception</title>
<ellipse fill="none" stroke="black" cx="114" cy="-234" rx="50.0912" ry="18"/>
<text text-anchor="middle" x="114" y="-230.3" font-family="Times New Roman,serif" font-size="14.00" fill="gray">\Exception</text>
</g>
<!-- \\PEAR2\\Net\\RouterOS\\NotSupportedException&#45;&gt;\\Exception -->
<g id="edge12" class="edge"><title>\\PEAR2\\Net\\RouterOS\\NotSupportedException&#45;&gt;\\Exception</title>
<path fill="none" stroke="black" d="M310.795,-553.95C306.877,-551.353 303.234,-548.387 300,-545 210.078,-450.819 320.707,-352.441 228,-261 213.754,-246.948 193.579,-239.732 174.21,-236.165"/>
<polygon fill="none" stroke="black" points="174.608,-232.685 164.191,-234.615 173.538,-239.603 174.608,-232.685"/>
</g>
<!-- \\PEAR2\\Net\\RouterOS\\Query -->
<g id="node12" class="node"><title>\\PEAR2\\Net\\RouterOS\\Query</title>
<a xlink:href="Query.html" xlink:title="Query" target="_parent">
<polygon fill="none" stroke="black" points="417,-806 363,-806 363,-770 417,-770 417,-806"/>
<text text-anchor="middle" x="390" y="-785.2" font-family="Courier,monospace" font-size="11.00">Query</text>
</a>
</g>
<!-- \\PEAR2\\Net\\RouterOS\\Registry -->
<g id="node13" class="node"><title>\\PEAR2\\Net\\RouterOS\\Registry</title>
<a xlink:href="Registry.html" xlink:title="Registry" target="_parent">
<polygon fill="none" stroke="black" points="425.5,-752 354.5,-752 354.5,-716 425.5,-716 425.5,-752"/>
<text text-anchor="middle" x="390" y="-731.2" font-family="Courier,monospace" font-size="11.00">Registry</text>
</a>
</g>
<!-- \\PEAR2\\Net\\RouterOS\\Request -->
<g id="node14" class="node"><title>\\PEAR2\\Net\\RouterOS\\Request</title>
<a xlink:href="Request.html" xlink:title="Request" target="_parent">
<polygon fill="none" stroke="black" points="422,-1022 358,-1022 358,-986 422,-986 422,-1022"/>
<text text-anchor="middle" x="390" y="-1001.2" font-family="Courier,monospace" font-size="11.00">Request</text>
</a>
</g>
<!-- \\PEAR2\\Net\\RouterOS\\Request&#45;&gt;\\PEAR2\\Net\\RouterOS\\Message -->
<g id="edge14" class="edge"><title>\\PEAR2\\Net\\RouterOS\\Request&#45;&gt;\\PEAR2\\Net\\RouterOS\\Message</title>
<path fill="none" stroke="black" d="M357.835,-1000.93C308.289,-996.047 211.524,-986.511 156.276,-981.067"/>
<polygon fill="none" stroke="black" points="156.43,-977.566 146.135,-980.068 155.744,-984.532 156.43,-977.566"/>
</g>
<!-- \\PEAR2\\Net\\RouterOS\\Response -->
<g id="node15" class="node"><title>\\PEAR2\\Net\\RouterOS\\Response</title>
<a xlink:href="Response.html" xlink:title="Response" target="_parent">
<polygon fill="none" stroke="black" points="425.5,-968 354.5,-968 354.5,-932 425.5,-932 425.5,-968"/>
<text text-anchor="middle" x="390" y="-947.2" font-family="Courier,monospace" font-size="11.00">Response</text>
</a>
</g>
<!-- \\PEAR2\\Net\\RouterOS\\Response&#45;&gt;\\PEAR2\\Net\\RouterOS\\Message -->
<g id="edge16" class="edge"><title>\\PEAR2\\Net\\RouterOS\\Response&#45;&gt;\\PEAR2\\Net\\RouterOS\\Message</title>
<path fill="none" stroke="black" d="M354.298,-953.42C303.807,-958.395 210.246,-967.614 156.284,-972.932"/>
<polygon fill="none" stroke="black" points="155.652,-969.477 146.044,-973.941 156.339,-976.443 155.652,-969.477"/>
</g>
<!-- \\PEAR2\\Net\\RouterOS\\ResponseCollection -->
<g id="node16" class="node"><title>\\PEAR2\\Net\\RouterOS\\ResponseCollection</title>
<a xlink:href="ResponseCollection.html" xlink:title="ResponseCollection" target="_parent">
<polygon fill="none" stroke="black" points="459,-482 321,-482 321,-446 459,-446 459,-482"/>
<text text-anchor="middle" x="390" y="-461.2" font-family="Courier,monospace" font-size="11.00">ResponseCollection</text>
</a>
</g>
<!-- \\ArrayAccess -->
<g id="node38" class="node"><title>\\ArrayAccess</title>
<ellipse fill="none" stroke="black" cx="114" cy="-18" rx="63.0888" ry="18"/>
<text text-anchor="middle" x="114" y="-14.3" font-family="Times New Roman,serif" font-size="14.00" fill="gray">\\ArrayAccess</text>
</g>
<!-- \\PEAR2\\Net\\RouterOS\\ResponseCollection&#45;&gt;\\ArrayAccess -->
<g id="edge30" class="edge"><title>\\PEAR2\\Net\\RouterOS\\ResponseCollection&#45;&gt;\\ArrayAccess</title>
<path fill="none" stroke="black" stroke-dasharray="1,5" d="M387.823,-445.997C382.569,-381.036 355.511,-156.665 228,-45 216.175,-34.6443 201.078,-28.0914 185.796,-23.9857"/>
<polygon fill="none" stroke="black" points="186.296,-20.5079 175.761,-21.6257 184.694,-27.322 186.296,-20.5079"/>
</g>
<!-- \\SeekableIterator -->
<g id="node40" class="node"><title>\\SeekableIterator</title>
<ellipse fill="none" stroke="black" cx="114" cy="-126" rx="74.187" ry="18"/>
<text text-anchor="middle" x="114" y="-122.3" font-family="Times New Roman,serif" font-size="14.00" fill="gray">\\SeekableIterator</text>
</g>
<!-- \\PEAR2\\Net\\RouterOS\\ResponseCollection&#45;&gt;\\SeekableIterator -->
<g id="edge32" class="edge"><title>\\PEAR2\\Net\\RouterOS\\ResponseCollection&#45;&gt;\\SeekableIterator</title>
<path fill="none" stroke="black" stroke-dasharray="1,5" d="M385.191,-445.876C372.896,-392.062 329.044,-232.041 228,-153 217.745,-144.978 205.478,-139.285 192.865,-135.257"/>
<polygon fill="none" stroke="black" points="193.757,-131.872 183.18,-132.489 191.834,-138.602 193.757,-131.872"/>
</g>
<!-- \\Countable -->
<g id="node42" class="node"><title>\\Countable</title>
<ellipse fill="none" stroke="black" cx="114" cy="-72" rx="52.7911" ry="18"/>
<text text-anchor="middle" x="114" y="-68.3" font-family="Times New Roman,serif" font-size="14.00" fill="gray">\\Countable</text>
</g>
<!-- \\PEAR2\\Net\\RouterOS\\ResponseCollection&#45;&gt;\\Countable -->
<g id="edge34" class="edge"><title>\\PEAR2\\Net\\RouterOS\\ResponseCollection&#45;&gt;\\Countable</title>
<path fill="none" stroke="black" stroke-dasharray="1,5" d="M386.675,-445.834C378.027,-386.095 342.106,-194.131 228,-99 213.556,-86.9578 194.644,-80.1058 176.436,-76.2607"/>
<polygon fill="none" stroke="black" points="176.893,-72.7862 166.425,-74.4201 175.627,-79.6708 176.893,-72.7862"/>
</g>
<!-- \\PEAR2\\Net\\RouterOS\\SocketException -->
<g id="node17" class="node"><title>\\PEAR2\\Net\\RouterOS\\SocketException</title>
<a xlink:href="SocketException.html" xlink:title="SocketException" target="_parent">
<polygon fill="none" stroke="black" points="449,-914 331,-914 331,-878 449,-878 449,-914"/>
<text text-anchor="middle" x="390" y="-893.2" font-family="Courier,monospace" font-size="11.00">SocketException</text>
</a>
</g>
<!-- \\PEAR2\\Net\\RouterOS\\SocketException&#45;&gt;\\PEAR2\\Net\\RouterOS\\Exception -->
<g id="edge36" class="edge"><title>\\PEAR2\\Net\\RouterOS\\SocketException&#45;&gt;\\PEAR2\\Net\\RouterOS\\Exception</title>
<path fill="none" stroke="black" stroke-dasharray="1,5" d="M330.843,-883.579C320.093,-879.862 309.328,-875.092 300,-869 222.264,-818.231 158.911,-725.501 130.754,-679.848"/>
<polygon fill="none" stroke="black" points="133.628,-677.838 125.442,-671.112 127.647,-681.475 133.628,-677.838"/>
</g>
<!-- \\PEAR2\\Net\\RouterOS\\SocketException&#45;&gt;\\RuntimeException -->
<g id="edge18" class="edge"><title>\\PEAR2\\Net\\RouterOS\\SocketException&#45;&gt;\\RuntimeException</title>
<path fill="none" stroke="black" d="M330.878,-888.408C319.225,-884.352 308.093,-878.225 300,-869 170.764,-721.691 355.023,-583.221 228,-434 218.407,-422.731 205.359,-414.793 191.532,-409.203"/>
<polygon fill="none" stroke="black" points="192.463,-405.818 181.869,-405.697 190.075,-412.398 192.463,-405.818"/>
</g>
<!-- \\PEAR2\\Net\\RouterOS\\UnexpectedValueException -->
<g id="node18" class="node"><title>\\PEAR2\\Net\\RouterOS\\UnexpectedValueException</title>
<a xlink:href="UnexpectedValueException.html" xlink:title="UnexpectedValueException" target="_parent">
<polygon fill="none" stroke="black" points="479.5,-536 300.5,-536 300.5,-500 479.5,-500 479.5,-536"/>
<text text-anchor="middle" x="390" y="-515.2" font-family="Courier,monospace" font-size="11.00">UnexpectedValueException</text>
</a>
</g>
<!-- \\PEAR2\\Net\\RouterOS\\UnexpectedValueException&#45;&gt;\\PEAR2\\Net\\RouterOS\\Exception -->
<g id="edge38" class="edge"><title>\\PEAR2\\Net\\RouterOS\\UnexpectedValueException&#45;&gt;\\PEAR2\\Net\\RouterOS\\Exception</title>
<path fill="none" stroke="black" stroke-dasharray="1,5" d="M316.436,-536.03C310.678,-538.642 305.118,-541.616 300,-545 258.417,-572.492 270.934,-605.669 228,-631 208.399,-642.564 183.879,-648.194 162.693,-650.88"/>
<polygon fill="none" stroke="black" points="162.161,-647.417 152.597,-651.975 162.916,-654.376 162.161,-647.417"/>
</g>
<!-- \\UnexpectedValueException -->
<g id="node32" class="node"><title>\\UnexpectedValueException</title>
<ellipse fill="none" stroke="black" cx="114" cy="-180" rx="113.98" ry="18"/>
<text text-anchor="middle" x="114" y="-176.3" font-family="Times New Roman,serif" font-size="14.00" fill="gray">\UnexpectedValueException</text>
</g>
<!-- \\PEAR2\\Net\\RouterOS\\UnexpectedValueException&#45;&gt;\\UnexpectedValueException -->
<g id="edge20" class="edge"><title>\\PEAR2\\Net\\RouterOS\\UnexpectedValueException&#45;&gt;\\UnexpectedValueException</title>
<path fill="none" stroke="black" d="M310.795,-499.95C306.877,-497.353 303.234,-494.387 300,-491 210.078,-396.819 320.707,-298.441 228,-207 223.477,-202.538 218.355,-198.766 212.852,-195.58"/>
<polygon fill="none" stroke="black" points="214.421,-192.452 203.921,-191.043 211.251,-198.693 214.421,-192.452"/>
</g>
</g>
</svg>
