<?xml version="1.0" encoding="UTF-8" standalone="no"?>
<!DOCTYPE svg PUBLIC "-//W3C//DTD SVG 1.1//EN"
 "http://www.w3.org/Graphics/SVG/1.1/DTD/svg11.dtd">
<!-- Generated by graphviz version 2.30.1 (20130214.1330)
 -->
<!-- Title: G Pages: 1 -->
<svg width="528pt" height="1320pt"
 viewBox="0.00 0.00 528.00 1320.00" xmlns="http://www.w3.org/2000/svg" xmlns:xlink="http://www.w3.org/1999/xlink">
<g id="graph0" class="graph" transform="scale(1 1) rotate(0) translate(4 1316)">
<title>G</title>
<polygon fill="white" stroke="white" points="-4,5 -4,-1316 525,-1316 525,5 -4,5"/>
<g id="clust1" class="cluster"><title>cluster_Global</title>
<path fill="none" stroke="gray" d="M51,-422C51,-422 500,-422 500,-422 506,-422 512,-428 512,-434 512,-434 512,-1292 512,-1292 512,-1298 506,-1304 500,-1304 500,-1304 51,-1304 51,-1304 45,-1304 39,-1298 39,-1292 39,-1292 39,-434 39,-434 39,-428 45,-422 51,-422"/>
<text text-anchor="middle" x="275.5" y="-1291.2" font-family="Times New Roman,serif" font-size="11.00" fill="gray">\</text>
</g>
<g id="clust2" class="cluster"><title>cluster_\PEAR2</title>
<path fill="none" stroke="gray" d="M59,-430C59,-430 492,-430 492,-430 498,-430 504,-436 504,-442 504,-442 504,-1264 504,-1264 504,-1270 498,-1276 492,-1276 492,-1276 59,-1276 59,-1276 53,-1276 47,-1270 47,-1264 47,-1264 47,-442 47,-442 47,-436 53,-430 59,-430"/>
<text text-anchor="middle" x="275.5" y="-1263.2" font-family="Times New Roman,serif" font-size="11.00" fill="gray">PEAR2</text>
</g>
<g id="clust3" class="cluster"><title>cluster_\PEAR2\Net</title>
<path fill="none" stroke="gray" d="M67,-438C67,-438 484,-438 484,-438 490,-438 496,-444 496,-450 496,-450 496,-1236 496,-1236 496,-1242 490,-1248 484,-1248 484,-1248 67,-1248 67,-1248 61,-1248 55,-1242 55,-1236 55,-1236 55,-450 55,-450 55,-444 61,-438 67,-438"/>
<text text-anchor="middle" x="275.5" y="-1235.2" font-family="Times New Roman,serif" font-size="11.00" fill="gray">Net</text>
</g>
<g id="clust4" class="cluster"><title>cluster_\PEAR2\Net\RouterOS</title>
<path fill="none" stroke="gray" d="M75,-446C75,-446 476,-446 476,-446 482,-446 488,-452 488,-458 488,-458 488,-1208 488,-1208 488,-1214 482,-1220 476,-1220 476,-1220 75,-1220 75,-1220 69,-1220 63,-1214 63,-1208 63,-1208 63,-458 63,-458 63,-452 69,-446 75,-446"/>
<text text-anchor="middle" x="275.5" y="-1207.2" font-family="Times New Roman,serif" font-size="11.00" fill="gray">RouterOS</text>
</g>
<!-- \\PEAR2\\Net\\RouterOS\\Client -->
<g id="node1" class="node"><title>\\PEAR2\\Net\\RouterOS\\Client</title>
<polygon fill="none" stroke="black" points="418.5,-1192 361.5,-1192 361.5,-1156 418.5,-1156 418.5,-1192"/>
<text text-anchor="middle" x="390" y="-1171.2" font-family="Courier,monospace" font-size="11.00">Client</text>
</g>
<!-- \\PEAR2\\Net\\RouterOS\\Communicator -->
<g id="node2" class="node"><title>\\PEAR2\\Net\\RouterOS\\Communicator</title>
<polygon fill="none" stroke="black" points="439,-1138 341,-1138 341,-1102 439,-1102 439,-1138"/>
<text text-anchor="middle" x="390" y="-1117.2" font-family="Courier,monospace" font-size="11.00">Communicator</text>
</g>
<!-- \\PEAR2\\Net\\RouterOS\\DataFlowException -->
<g id="node3" class="node"><title>\\PEAR2\\Net\\RouterOS\\DataFlowException</title>
<polygon fill="none" stroke="black" points="455.5,-922 324.5,-922 324.5,-886 455.5,-886 455.5,-922"/>
<text text-anchor="middle" x="390" y="-901.2" font-family="Courier,monospace" font-size="11.00">DataFlowException</text>
</g>
<!-- \\RuntimeException -->
<g id="node17" class="node"><title>\\RuntimeException</title>
<ellipse fill="none" stroke="black" cx="114" cy="-396" rx="79.8859" ry="18"/>
<text text-anchor="middle" x="114" y="-392.3" font-family="Times New Roman,serif" font-size="14.00" fill="gray">\RuntimeException</text>
</g>
<!-- \\PEAR2\\Net\\RouterOS\\DataFlowException&#45;&gt;\\RuntimeException -->
<g id="edge1" class="edge"><title>\\PEAR2\\Net\\RouterOS\\DataFlowException&#45;&gt;\\RuntimeException</title>
<path fill="none" stroke="black" d="M324.058,-893.756C314.949,-889.813 306.496,-884.404 300,-877 170.764,-729.691 350.322,-595.098 228,-442 216.837,-428.029 200.746,-418.269 184.192,-411.464"/>
<polygon fill="none" stroke="black" points="185.018,-408.035 174.426,-407.788 182.552,-414.586 185.018,-408.035"/>
</g>
<!-- \\PEAR2\\Net\\RouterOS\\Exception -->
<g id="node16" class="node"><title>\\PEAR2\\Net\\RouterOS\\Exception</title>
<polygon fill="none" stroke="black" points="152.5,-733 75.5,-733 75.5,-697 152.5,-697 152.5,-733"/>
<text text-anchor="middle" x="114" y="-712.2" font-family="Courier,monospace" font-size="11.00">Exception</text>
</g>
<!-- \\PEAR2\\Net\\RouterOS\\DataFlowException&#45;&gt;\\PEAR2\\Net\\RouterOS\\Exception -->
<g id="edge2" class="edge"><title>\\PEAR2\\Net\\RouterOS\\DataFlowException&#45;&gt;\\PEAR2\\Net\\RouterOS\\Exception</title>
<path fill="none" stroke="black" stroke-dasharray="1,5" d="M324.448,-888.003C315.99,-884.881 307.623,-881.233 300,-877 233.55,-840.103 170.05,-776.174 137.535,-740.658"/>
<polygon fill="none" stroke="black" points="140.009,-738.175 130.702,-733.111 134.82,-742.873 140.009,-738.175"/>
</g>
<!-- \\PEAR2\\Net\\RouterOS\\InvalidArgumentException -->
<g id="node4" class="node"><title>\\PEAR2\\Net\\RouterOS\\InvalidArgumentException</title>
<polygon fill="none" stroke="black" points="479.5,-760 300.5,-760 300.5,-724 479.5,-724 479.5,-760"/>
<text text-anchor="middle" x="390" y="-739.2" font-family="Courier,monospace" font-size="11.00">InvalidArgumentException</text>
</g>
<!-- \\InvalidArgumentException -->
<g id="node18" class="node"><title>\\InvalidArgumentException</title>
<ellipse fill="none" stroke="black" cx="114" cy="-342" rx="109.681" ry="18"/>
<text text-anchor="middle" x="114" y="-338.3" font-family="Times New Roman,serif" font-size="14.00" fill="gray">\InvalidArgumentException</text>
</g>
<!-- \\PEAR2\\Net\\RouterOS\\InvalidArgumentException&#45;&gt;\\InvalidArgumentException -->
<g id="edge3" class="edge"><title>\\PEAR2\\Net\\RouterOS\\InvalidArgumentException&#45;&gt;\\InvalidArgumentException</title>
<path fill="none" stroke="black" d="M310.221,-723.838C306.499,-721.266 303.051,-718.337 300,-715 194.006,-599.082 337.423,-481.686 228,-369 223.482,-364.347 218.315,-360.437 212.735,-357.156"/>
<polygon fill="none" stroke="black" points="214.155,-353.951 203.66,-352.503 210.962,-360.18 214.155,-353.951"/>
</g>
<!-- \\PEAR2\\Net\\RouterOS\\InvalidArgumentException&#45;&gt;\\PEAR2\\Net\\RouterOS\\Exception -->
<g id="edge4" class="edge"><title>\\PEAR2\\Net\\RouterOS\\InvalidArgumentException&#45;&gt;\\PEAR2\\Net\\RouterOS\\Exception</title>
<path fill="none" stroke="black" stroke-dasharray="1,5" d="M300.418,-733.271C254.685,-728.765 200.69,-723.444 162.8,-719.71"/>
<polygon fill="none" stroke="black" points="162.855,-716.199 152.56,-718.701 162.168,-723.165 162.855,-716.199"/>
</g>
<!-- \\PEAR2\\Net\\RouterOS\\LengthException -->
<g id="node5" class="node"><title>\\PEAR2\\Net\\RouterOS\\LengthException</title>
<polygon fill="none" stroke="black" points="449,-706 331,-706 331,-670 449,-670 449,-706"/>
<text text-anchor="middle" x="390" y="-685.2" font-family="Courier,monospace" font-size="11.00">LengthException</text>
</g>
<!-- \\LengthException -->
<g id="node19" class="node"><title>\\LengthException</title>
<ellipse fill="none" stroke="black" cx="114" cy="-288" rx="74.9875" ry="18"/>
<text text-anchor="middle" x="114" y="-284.3" font-family="Times New Roman,serif" font-size="14.00" fill="gray">\LengthException</text>
</g>
<!-- \\PEAR2\\Net\\RouterOS\\LengthException&#45;&gt;\\LengthException -->
<g id="edge5" class="edge"><title>\\PEAR2\\Net\\RouterOS\\LengthException&#45;&gt;\\LengthException</title>
<path fill="none" stroke="black" d="M330.696,-679.997C319.195,-675.955 308.172,-669.937 300,-661 194.006,-545.082 337.423,-427.686 228,-315 219.241,-305.98 208.047,-299.751 196.124,-295.49"/>
<polygon fill="none" stroke="black" points="197.027,-292.106 186.439,-292.479 194.949,-298.79 197.027,-292.106"/>
</g>
<!-- \\PEAR2\\Net\\RouterOS\\LengthException&#45;&gt;\\PEAR2\\Net\\RouterOS\\Exception -->
<g id="edge6" class="edge"><title>\\PEAR2\\Net\\RouterOS\\LengthException&#45;&gt;\\PEAR2\\Net\\RouterOS\\Exception</title>
<path fill="none" stroke="black" stroke-dasharray="1,5" d="M330.892,-693.726C280.944,-698.648 209.775,-705.661 163.003,-710.27"/>
<polygon fill="none" stroke="black" points="162.437,-706.808 152.829,-711.272 163.124,-713.775 162.437,-706.808"/>
</g>
<!-- \\PEAR2\\Net\\RouterOS\\Message -->
<g id="node6" class="node"><title>\\PEAR2\\Net\\RouterOS\\Message</title>
<polygon fill="none" stroke="black" points="156.5,-1057 71.5,-1057 71.5,-1021 156.5,-1021 156.5,-1057"/>
<text text-anchor="start" x="80" y="-1042.7" font-family="Courier,monospace" font-size="11.00">«abstract»</text>
<text text-anchor="start" x="90" y="-1031.7" font-family="Courier,monospace" font-size="11.00">Message</text>
</g>
<!-- \\PEAR2\\Net\\RouterOS\\NotSupportedException -->
<g id="node7" class="node"><title>\\PEAR2\\Net\\RouterOS\\NotSupportedException</title>
<polygon fill="none" stroke="black" points="469,-652 311,-652 311,-616 469,-616 469,-652"/>
<text text-anchor="middle" x="390" y="-631.2" font-family="Courier,monospace" font-size="11.00">NotSupportedException</text>
</g>
<!-- \\Exception -->
<g id="node20" class="node"><title>\\Exception</title>
<ellipse fill="none" stroke="black" cx="114" cy="-234" rx="50.0912" ry="18"/>
<text text-anchor="middle" x="114" y="-230.3" font-family="Times New Roman,serif" font-size="14.00" fill="gray">\Exception</text>
</g>
<!-- \\PEAR2\\Net\\RouterOS\\NotSupportedException&#45;&gt;\\Exception -->
<g id="edge7" class="edge"><title>\\PEAR2\\Net\\RouterOS\\NotSupportedException&#45;&gt;\\Exception</title>
<path fill="none" stroke="black" d="M310.621,-616.112C306.746,-613.475 303.16,-610.456 300,-607 194.006,-491.082 337.423,-373.686 228,-261 214,-246.583 193.781,-239.298 174.305,-235.777"/>
<polygon fill="none" stroke="black" points="174.634,-232.288 164.225,-234.262 173.593,-239.21 174.634,-232.288"/>
</g>
<!-- \\PEAR2\\Net\\RouterOS\\NotSupportedException&#45;&gt;\\PEAR2\\Net\\RouterOS\\Exception -->
<g id="edge8" class="edge"><title>\\PEAR2\\Net\\RouterOS\\NotSupportedException&#45;&gt;\\PEAR2\\Net\\RouterOS\\Exception</title>
<path fill="none" stroke="black" stroke-dasharray="1,5" d="M327.85,-652.077C277.89,-666.846 208.279,-687.425 162.454,-700.972"/>
<polygon fill="none" stroke="black" points="161.366,-697.644 152.768,-703.835 163.35,-704.356 161.366,-697.644"/>
</g>
<!-- \\PEAR2\\Net\\RouterOS\\Query -->
<g id="node8" class="node"><title>\\PEAR2\\Net\\RouterOS\\Query</title>
<polygon fill="none" stroke="black" points="417,-868 363,-868 363,-832 417,-832 417,-868"/>
<text text-anchor="middle" x="390" y="-847.2" font-family="Courier,monospace" font-size="11.00">Query</text>
</g>
<!-- \\PEAR2\\Net\\RouterOS\\Registry -->
<g id="node9" class="node"><title>\\PEAR2\\Net\\RouterOS\\Registry</title>
<polygon fill="none" stroke="black" points="425.5,-814 354.5,-814 354.5,-778 425.5,-778 425.5,-814"/>
<text text-anchor="middle" x="390" y="-793.2" font-family="Courier,monospace" font-size="11.00">Registry</text>
</g>
<!-- \\PEAR2\\Net\\RouterOS\\Request -->
<g id="node10" class="node"><title>\\PEAR2\\Net\\RouterOS\\Request</title>
<polygon fill="none" stroke="black" points="422,-1030 358,-1030 358,-994 422,-994 422,-1030"/>
<text text-anchor="middle" x="390" y="-1009.2" font-family="Courier,monospace" font-size="11.00">Request</text>
</g>
<!-- \\PEAR2\\Net\\RouterOS\\Request&#45;&gt;\\PEAR2\\Net\\RouterOS\\Message -->
<g id="edge9" class="edge"><title>\\PEAR2\\Net\\RouterOS\\Request&#45;&gt;\\PEAR2\\Net\\RouterOS\\Message</title>
<path fill="none" stroke="black" d="M357.835,-1015.07C311.355,-1019.65 223.32,-1028.33 166.989,-1033.88"/>
<polygon fill="none" stroke="black" points="166.466,-1030.41 156.857,-1034.88 167.152,-1037.38 166.466,-1030.41"/>
</g>
<!-- \\PEAR2\\Net\\RouterOS\\Response -->
<g id="node11" class="node"><title>\\PEAR2\\Net\\RouterOS\\Response</title>
<polygon fill="none" stroke="black" points="425.5,-1084 354.5,-1084 354.5,-1048 425.5,-1048 425.5,-1084"/>
<text text-anchor="middle" x="390" y="-1063.2" font-family="Courier,monospace" font-size="11.00">Response</text>
</g>
<!-- \\PEAR2\\Net\\RouterOS\\Response&#45;&gt;\\PEAR2\\Net\\RouterOS\\Message -->
<g id="edge10" class="edge"><title>\\PEAR2\\Net\\RouterOS\\Response&#45;&gt;\\PEAR2\\Net\\RouterOS\\Message</title>
<path fill="none" stroke="black" d="M354.298,-1062.58C306.948,-1057.91 221.722,-1049.52 166.797,-1044.1"/>
<polygon fill="none" stroke="black" points="166.868,-1040.59 156.573,-1043.1 166.181,-1047.56 166.868,-1040.59"/>
</g>
<!-- \\PEAR2\\Net\\RouterOS\\ResponseCollection -->
<g id="node12" class="node"><title>\\PEAR2\\Net\\RouterOS\\ResponseCollection</title>
<polygon fill="none" stroke="black" points="459,-544 321,-544 321,-508 459,-508 459,-544"/>
<text text-anchor="middle" x="390" y="-523.2" font-family="Courier,monospace" font-size="11.00">ResponseCollection</text>
</g>
<!-- \\ArrayAccess -->
<g id="node21" class="node"><title>\\ArrayAccess</title>
<ellipse fill="none" stroke="black" cx="114" cy="-18" rx="60.3893" ry="18"/>
<text text-anchor="middle" x="114" y="-14.3" font-family="Times New Roman,serif" font-size="14.00" fill="gray">\ArrayAccess</text>
</g>
<!-- \\PEAR2\\Net\\RouterOS\\ResponseCollection&#45;&gt;\\ArrayAccess -->
<g id="edge11" class="edge"><title>\\PEAR2\\Net\\RouterOS\\ResponseCollection&#45;&gt;\\ArrayAccess</title>
<path fill="none" stroke="black" stroke-dasharray="1,5" d="M320.909,-514.376C313,-510.576 305.728,-505.574 300,-499 165.786,-344.972 366.775,-194.933 228,-45 216.654,-32.7415 200.824,-25.5885 184.598,-21.5207"/>
<polygon fill="none" stroke="black" points="184.99,-18.0259 174.48,-19.3686 183.533,-24.8727 184.99,-18.0259"/>
</g>
<!-- \\SeekableIterator -->
<g id="node22" class="node"><title>\\SeekableIterator</title>
<ellipse fill="none" stroke="black" cx="114" cy="-126" rx="71.4873" ry="18"/>
<text text-anchor="middle" x="114" y="-122.3" font-family="Times New Roman,serif" font-size="14.00" fill="gray">\SeekableIterator</text>
</g>
<!-- \\PEAR2\\Net\\RouterOS\\ResponseCollection&#45;&gt;\\SeekableIterator -->
<g id="edge12" class="edge"><title>\\PEAR2\\Net\\RouterOS\\ResponseCollection&#45;&gt;\\SeekableIterator</title>
<path fill="none" stroke="black" stroke-dasharray="1,5" d="M320.758,-513.906C312.973,-510.173 305.775,-505.316 300,-499 194.006,-383.082 337.423,-265.686 228,-153 218.706,-143.429 206.672,-137.001 193.934,-132.732"/>
<polygon fill="none" stroke="black" points="194.668,-129.301 184.089,-129.871 192.715,-136.022 194.668,-129.301"/>
</g>
<!-- \\Countable -->
<g id="node23" class="node"><title>\\Countable</title>
<ellipse fill="none" stroke="black" cx="114" cy="-72" rx="50.0912" ry="18"/>
<text text-anchor="middle" x="114" y="-68.3" font-family="Times New Roman,serif" font-size="14.00" fill="gray">\Countable</text>
</g>
<!-- \\PEAR2\\Net\\RouterOS\\ResponseCollection&#45;&gt;\\Countable -->
<g id="edge13" class="edge"><title>\\PEAR2\\Net\\RouterOS\\ResponseCollection&#45;&gt;\\Countable</title>
<path fill="none" stroke="black" stroke-dasharray="1,5" d="M320.596,-514.053C312.837,-510.296 305.689,-505.393 300,-499 179.921,-364.055 352.073,-230.282 228,-99 214.138,-84.332 193.849,-77.0054 174.275,-73.5222"/>
<polygon fill="none" stroke="black" points="174.545,-70.0243 164.142,-72.0325 173.527,-76.9499 174.545,-70.0243"/>
</g>
<!-- \\PEAR2\\Net\\RouterOS\\SocketException -->
<g id="node13" class="node"><title>\\PEAR2\\Net\\RouterOS\\SocketException</title>
<polygon fill="none" stroke="black" points="449,-976 331,-976 331,-940 449,-940 449,-976"/>
<text text-anchor="middle" x="390" y="-955.2" font-family="Courier,monospace" font-size="11.00">SocketException</text>
</g>
<!-- \\PEAR2\\Net\\RouterOS\\SocketException&#45;&gt;\\RuntimeException -->
<g id="edge14" class="edge"><title>\\PEAR2\\Net\\RouterOS\\SocketException&#45;&gt;\\RuntimeException</title>
<path fill="none" stroke="black" d="M330.755,-950.514C319.109,-946.453 308.01,-940.297 300,-931 156.604,-764.58 363.587,-614.841 228,-442 217.017,-427.999 201.073,-418.234 184.607,-411.431"/>
<polygon fill="none" stroke="black" points="185.476,-408.019 174.885,-407.759 183.003,-414.567 185.476,-408.019"/>
</g>
<!-- \\PEAR2\\Net\\RouterOS\\SocketException&#45;&gt;\\PEAR2\\Net\\RouterOS\\Exception -->
<g id="edge15" class="edge"><title>\\PEAR2\\Net\\RouterOS\\SocketException&#45;&gt;\\PEAR2\\Net\\RouterOS\\Exception</title>
<path fill="none" stroke="black" stroke-dasharray="1,5" d="M330.843,-945.579C320.093,-941.862 309.328,-937.092 300,-931 222.264,-880.231 158.911,-787.501 130.754,-741.848"/>
<polygon fill="none" stroke="black" points="133.628,-739.838 125.442,-733.112 127.647,-743.475 133.628,-739.838"/>
</g>
<!-- \\PEAR2\\Net\\RouterOS\\UnexpectedValueException -->
<g id="node14" class="node"><title>\\PEAR2\\Net\\RouterOS\\UnexpectedValueException</title>
<polygon fill="none" stroke="black" points="479.5,-598 300.5,-598 300.5,-562 479.5,-562 479.5,-598"/>
<text text-anchor="middle" x="390" y="-577.2" font-family="Courier,monospace" font-size="11.00">UnexpectedValueException</text>
</g>
<!-- \\UnexpectedValueException -->
<g id="node24" class="node"><title>\\UnexpectedValueException</title>
<ellipse fill="none" stroke="black" cx="114" cy="-180" rx="113.98" ry="18"/>
<text text-anchor="middle" x="114" y="-176.3" font-family="Times New Roman,serif" font-size="14.00" fill="gray">\UnexpectedValueException</text>
</g>
<!-- \\PEAR2\\Net\\RouterOS\\UnexpectedValueException&#45;&gt;\\UnexpectedValueException -->
<g id="edge16" class="edge"><title>\\PEAR2\\Net\\RouterOS\\UnexpectedValueException&#45;&gt;\\UnexpectedValueException</title>
<path fill="none" stroke="black" d="M310.221,-561.838C306.499,-559.266 303.051,-556.337 300,-553 194.006,-437.082 337.423,-319.686 228,-207 223.769,-202.643 218.97,-198.937 213.796,-195.79"/>
<polygon fill="none" stroke="black" points="215.241,-192.595 204.766,-191.005 211.963,-198.78 215.241,-192.595"/>
</g>
<!-- \\PEAR2\\Net\\RouterOS\\UnexpectedValueException&#45;&gt;\\PEAR2\\Net\\RouterOS\\Exception -->
<g id="edge17" class="edge"><title>\\PEAR2\\Net\\RouterOS\\UnexpectedValueException&#45;&gt;\\PEAR2\\Net\\RouterOS\\Exception</title>
<path fill="none" stroke="black" stroke-dasharray="1,5" d="M323.233,-598.04C315.304,-600.773 307.4,-603.771 300,-607 245.324,-630.86 186.533,-667.221 150.251,-691.05"/>
<polygon fill="none" stroke="black" points="147.935,-688.385 141.528,-696.823 151.799,-694.223 147.935,-688.385"/>
</g>
<!-- \\PEAR2\\Net\\RouterOS\\Util -->
<g id="node15" class="node"><title>\\PEAR2\\Net\\RouterOS\\Util</title>
<polygon fill="none" stroke="black" points="417,-490 363,-490 363,-454 417,-454 417,-490"/>
<text text-anchor="middle" x="390" y="-469.2" font-family="Courier,monospace" font-size="11.00">Util</text>
</g>
</g>
</svg>
