<?xml version="1.0" encoding="UTF-8" standalone="no"?>
<!DOCTYPE svg PUBLIC "-//W3C//DTD SVG 1.1//EN" "http://www.w3.org/Graphics/SVG/1.1/DTD/svg11.dtd">
<!-- Generated by graphviz version 2.28.0 (20110507.0327)
 -->
<!-- Title: G Pages: 1 -->
<svg xmlns="http://www.w3.org/2000/svg" xmlns:xlink="http://www.w3.org/1999/xlink" width="538pt" height="1176pt">
<g id="viewport" class="graph" transform="scale(1 1) rotate(0) translate(4 1172)">
<title>G</title>
<polygon fill="white" stroke="white" points="-4,5 -4,-1172 535,-1172 535,5 -4,5"/>
<g id="graph2" class="cluster"><title>cluster_PEAR2</title>
<polyline fill="none" stroke="gray" points="20,-422 510,-422 "/>
<path fill="none" stroke="gray" d="M510,-422C516,-422 522,-428 522,-434"/>
<polyline fill="none" stroke="gray" points="522,-434 522,-1148 "/>
<path fill="none" stroke="gray" d="M522,-1148C522,-1154 516,-1160 510,-1160"/>
<polyline fill="none" stroke="gray" points="510,-1160 20,-1160 "/>
<path fill="none" stroke="gray" d="M20,-1160C14,-1160 8,-1154 8,-1148"/>
<polyline fill="none" stroke="gray" points="8,-1148 8,-434 "/>
<path fill="none" stroke="gray" d="M8,-434C8,-428 14,-422 20,-422"/>
<text text-anchor="middle" x="265" y="-1147.2" font-family="Times New Roman,serif" font-size="11.00" fill="gray">PEAR2</text>
</g>
<g id="graph3" class="cluster"><title>cluster_PEAR2_Net</title>
<polyline fill="none" stroke="gray" points="28,-430 502,-430 "/>
<path fill="none" stroke="gray" d="M502,-430C508,-430 514,-436 514,-442"/>
<polyline fill="none" stroke="gray" points="514,-442 514,-1120 "/>
<path fill="none" stroke="gray" d="M514,-1120C514,-1126 508,-1132 502,-1132"/>
<polyline fill="none" stroke="gray" points="502,-1132 28,-1132 "/>
<path fill="none" stroke="gray" d="M28,-1132C22,-1132 16,-1126 16,-1120"/>
<polyline fill="none" stroke="gray" points="16,-1120 16,-442 "/>
<path fill="none" stroke="gray" d="M16,-442C16,-436 22,-430 28,-430"/>
<text text-anchor="middle" x="265" y="-1119.2" font-family="Times New Roman,serif" font-size="11.00" fill="gray">Net</text>
</g>
<g id="graph4" class="cluster"><title>cluster_PEAR2_Net_RouterOS</title>
<polyline fill="none" stroke="gray" points="36,-438 494,-438 "/>
<path fill="none" stroke="gray" d="M494,-438C500,-438 506,-444 506,-450"/>
<polyline fill="none" stroke="gray" points="506,-450 506,-1092 "/>
<path fill="none" stroke="gray" d="M506,-1092C506,-1098 500,-1104 494,-1104"/>
<polyline fill="none" stroke="gray" points="494,-1104 36,-1104 "/>
<path fill="none" stroke="gray" d="M36,-1104C30,-1104 24,-1098 24,-1092"/>
<polyline fill="none" stroke="gray" points="24,-1092 24,-450 "/>
<path fill="none" stroke="gray" d="M24,-450C24,-444 30,-438 36,-438"/>
<text text-anchor="middle" x="265" y="-1091.2" font-family="Times New Roman,serif" font-size="11.00" fill="gray">RouterOS</text>
</g>
<!-- _PEAR2_Net_RouterOS_Client -->
<g id="node4" class="node"><title>_PEAR2_Net_RouterOS_Client</title>
<a xlink:href="db_Client.html" xlink:title="Client" target="_parent">
<polygon fill="none" stroke="black" points="436.5,-1076 379.5,-1076 379.5,-1040 436.5,-1040 436.5,-1076"/>
<text text-anchor="middle" x="408" y="-1055.2" font-family="Courier New" font-size="11.00">Client</text>
</a>
</g>
<!-- _PEAR2_Net_RouterOS_Communicator -->
<g id="node5" class="node"><title>_PEAR2_Net_RouterOS_Communicator</title>
<a xlink:href="db_Communicator.html" xlink:title="Communicator" target="_parent">
<polygon fill="none" stroke="black" points="457,-1022 359,-1022 359,-986 457,-986 457,-1022"/>
<text text-anchor="middle" x="408" y="-1001.2" font-family="Courier New" font-size="11.00">Communicator</text>
</a>
</g>
<!-- _PEAR2_Net_RouterOS_DataFlowException -->
<g id="node6" class="node"><title>_PEAR2_Net_RouterOS_DataFlowException</title>
<a xlink:href="db_DataFlowException.html" xlink:title="DataFlowException" target="_parent">
<polygon fill="none" stroke="black" points="473.5,-860 342.5,-860 342.5,-824 473.5,-824 473.5,-860"/>
<text text-anchor="middle" x="408" y="-839.2" font-family="Courier New" font-size="11.00">DataFlowException</text>
</a>
</g>
<!-- _PEAR2_Net_RouterOS_Exception -->
<g id="node7" class="node"><title>_PEAR2_Net_RouterOS_Exception</title>
<a xlink:href="db_Exception.html" xlink:title="Exception" target="_parent">
<polygon fill="none" stroke="black" points="170.5,-671 93.5,-671 93.5,-635 170.5,-635 170.5,-671"/>
<text text-anchor="middle" x="132" y="-650.2" font-family="Courier New" font-size="11.00">Exception</text>
</a>
</g>
<!-- _PEAR2_Net_RouterOS_DataFlowException&#45;&gt;_PEAR2_Net_RouterOS_Exception -->
<g id="edge22" class="edge"><title>_PEAR2_Net_RouterOS_DataFlowException-&gt;_PEAR2_Net_RouterOS_Exception</title>
<path fill="none" stroke="black" stroke-dasharray="1,5" d="M342.448,-826.003C333.99,-822.881 325.623,-819.233 318,-815 251.55,-778.103 188.05,-714.174 155.535,-678.658"/>
<polygon fill="none" stroke="black" points="158.009,-676.175 148.702,-671.111 152.82,-680.873 158.009,-676.175"/>
</g>
<!-- _RuntimeException -->
<g id="node20" class="node"><title>_RuntimeException</title>
<ellipse fill="none" stroke="black" cx="132" cy="-396" rx="79.8859" ry="18"/>
<text text-anchor="middle" x="132" y="-392.3" font-family="Times New Roman,serif" font-size="14.00" fill="gray">\RuntimeException</text>
</g>
<!-- _PEAR2_Net_RouterOS_DataFlowException&#45;&gt;_RuntimeException -->
<g id="edge6" class="edge"><title>_PEAR2_Net_RouterOS_DataFlowException-&gt;_RuntimeException</title>
<path fill="none" stroke="black" d="M342.204,-831.627C333.077,-827.699 324.579,-822.33 318,-815 202.884,-686.758 359.189,-563.946 246,-434 236.225,-422.778 223.026,-414.861 209.097,-409.28"/>
<polygon fill="none" stroke="black" points="209.966,-405.872 199.371,-405.776 207.594,-412.458 209.966,-405.872"/>
</g>
<!-- _PEAR2_Net_RouterOS_InvalidArgumentException -->
<g id="node8" class="node"><title>_PEAR2_Net_RouterOS_InvalidArgumentException</title>
<a xlink:href="db_InvalidArgumentException.html" xlink:title="InvalidArgumentException" target="_parent">
<polygon fill="none" stroke="black" points="497.5,-698 318.5,-698 318.5,-662 497.5,-662 497.5,-698"/>
<text text-anchor="middle" x="408" y="-677.2" font-family="Courier New" font-size="11.00">InvalidArgumentException</text>
</a>
</g>
<!-- _PEAR2_Net_RouterOS_InvalidArgumentException&#45;&gt;_PEAR2_Net_RouterOS_Exception -->
<g id="edge24" class="edge"><title>_PEAR2_Net_RouterOS_InvalidArgumentException-&gt;_PEAR2_Net_RouterOS_Exception</title>
<path fill="none" stroke="black" stroke-dasharray="1,5" d="M318.418,-671.271C272.685,-666.765 218.69,-661.444 180.8,-657.71"/>
<polygon fill="none" stroke="black" points="180.855,-654.199 170.56,-656.701 180.168,-661.165 180.855,-654.199"/>
</g>
<!-- _InvalidArgumentException -->
<g id="node22" class="node"><title>_InvalidArgumentException</title>
<ellipse fill="none" stroke="black" cx="132" cy="-342" rx="109.681" ry="18"/>
<text text-anchor="middle" x="132" y="-338.3" font-family="Times New Roman,serif" font-size="14.00" fill="gray">\InvalidArgumentException</text>
</g>
<!-- _PEAR2_Net_RouterOS_InvalidArgumentException&#45;&gt;_InvalidArgumentException -->
<g id="edge8" class="edge"><title>_PEAR2_Net_RouterOS_InvalidArgumentException-&gt;_InvalidArgumentException</title>
<path fill="none" stroke="black" d="M328.795,-661.95C324.877,-659.353 321.234,-656.387 318,-653 228.078,-558.819 338.707,-460.441 246,-369 241.335,-364.399 236.035,-360.531 230.335,-357.284"/>
<polygon fill="none" stroke="black" points="231.595,-354.001 221.084,-352.676 228.475,-360.267 231.595,-354.001"/>
</g>
<!-- _PEAR2_Net_RouterOS_LengthException -->
<g id="node9" class="node"><title>_PEAR2_Net_RouterOS_LengthException</title>
<a xlink:href="db_LengthtException.html" xlink:title="LengthException" target="_parent">
<polygon fill="none" stroke="black" points="467,-644 349,-644 349,-608 467,-608 467,-644"/>
<text text-anchor="middle" x="408" y="-623.2" font-family="Courier New" font-size="11.00">LengthException</text>
</a>
</g>
<!-- _PEAR2_Net_RouterOS_LengthException&#45;&gt;_PEAR2_Net_RouterOS_Exception -->
<g id="edge26" class="edge"><title>_PEAR2_Net_RouterOS_LengthException-&gt;_PEAR2_Net_RouterOS_Exception</title>
<path fill="none" stroke="black" stroke-dasharray="1,5" d="M348.892,-631.726C298.944,-636.648 227.775,-643.661 181.003,-648.27"/>
<polygon fill="none" stroke="black" points="180.437,-644.808 170.829,-649.272 181.124,-651.775 180.437,-644.808"/>
</g>
<!-- _LengthException -->
<g id="node24" class="node"><title>_LengthException</title>
<ellipse fill="none" stroke="black" cx="132" cy="-288" rx="74.9875" ry="18"/>
<text text-anchor="middle" x="132" y="-284.3" font-family="Times New Roman,serif" font-size="14.00" fill="gray">\LengthException</text>
</g>
<!-- _PEAR2_Net_RouterOS_LengthException&#45;&gt;_LengthException -->
<g id="edge10" class="edge"><title>_PEAR2_Net_RouterOS_LengthException-&gt;_LengthException</title>
<path fill="none" stroke="black" d="M348.982,-617.73C337.464,-613.703 326.363,-607.759 318,-599 228.078,-504.819 338.707,-406.441 246,-315 237.048,-306.171 225.756,-300.04 213.794,-295.818"/>
<polygon fill="none" stroke="black" points="214.676,-292.428 204.089,-292.826 212.614,-299.117 214.676,-292.428"/>
</g>
<!-- _PEAR2_Net_RouterOS_Message -->
<g id="node10" class="node"><title>_PEAR2_Net_RouterOS_Message</title>
<a xlink:href="db_Message.html" xlink:title="&lt;I&gt;_PEAR2_Net_RouterOS_Message&lt;/I&gt;" target="_parent">
<polygon fill="none" stroke="black" points="232,-941 32,-941 32,-905 232,-905 232,-941"/>
<text text-anchor="start" x="40.5" y="-921.2" font-family="Courier New" font-size="11.00">_PEAR2_Net_RouterOS_Message</text>
</a>
</g>
<!-- _PEAR2_Net_RouterOS_NotSupportedException -->
<g id="node11" class="node"><title>_PEAR2_Net_RouterOS_NotSupportedException</title>
<a xlink:href="db_NotSupportedException.html" xlink:title="NotSupportedException" target="_parent">
<polygon fill="none" stroke="black" points="487,-590 329,-590 329,-554 487,-554 487,-590"/>
<text text-anchor="middle" x="408" y="-569.2" font-family="Courier New" font-size="11.00">NotSupportedException</text>
</a>
</g>
<!-- _PEAR2_Net_RouterOS_NotSupportedException&#45;&gt;_PEAR2_Net_RouterOS_Exception -->
<g id="edge28" class="edge"><title>_PEAR2_Net_RouterOS_NotSupportedException-&gt;_PEAR2_Net_RouterOS_Exception</title>
<path fill="none" stroke="black" stroke-dasharray="1,5" d="M343.951,-590.067C335.177,-592.888 326.323,-595.902 318,-599 285.182,-611.217 279.399,-620.476 246,-631 224.964,-637.629 201.065,-642.631 180.682,-646.176"/>
<polygon fill="none" stroke="black" points="179.967,-642.747 170.682,-647.85 181.123,-649.651 179.967,-642.747"/>
</g>
<!-- _Exception -->
<g id="node26" class="node"><title>_Exception</title>
<ellipse fill="none" stroke="black" cx="132" cy="-234" rx="50.0912" ry="18"/>
<text text-anchor="middle" x="132" y="-230.3" font-family="Times New Roman,serif" font-size="14.00" fill="gray">\Exception</text>
</g>
<!-- _PEAR2_Net_RouterOS_NotSupportedException&#45;&gt;_Exception -->
<g id="edge12" class="edge"><title>_PEAR2_Net_RouterOS_NotSupportedException-&gt;_Exception</title>
<path fill="none" stroke="black" d="M328.795,-553.95C324.877,-551.353 321.234,-548.387 318,-545 228.078,-450.819 338.707,-352.441 246,-261 231.754,-246.948 211.579,-239.732 192.21,-236.165"/>
<polygon fill="none" stroke="black" points="192.608,-232.685 182.191,-234.615 191.538,-239.603 192.608,-232.685"/>
</g>
<!-- _PEAR2_Net_RouterOS_Query -->
<g id="node12" class="node"><title>_PEAR2_Net_RouterOS_Query</title>
<a xlink:href="db_Query.html" xlink:title="Query" target="_parent">
<polygon fill="none" stroke="black" points="435,-752 381,-752 381,-716 435,-716 435,-752"/>
<text text-anchor="middle" x="408" y="-731.2" font-family="Courier New" font-size="11.00">Query</text>
</a>
</g>
<!-- _PEAR2_Net_RouterOS_Request -->
<g id="node13" class="node"><title>_PEAR2_Net_RouterOS_Request</title>
<a xlink:href="db_Request.html" xlink:title="Request" target="_parent">
<polygon fill="none" stroke="black" points="440,-968 376,-968 376,-932 440,-932 440,-968"/>
<text text-anchor="middle" x="408" y="-947.2" font-family="Courier New" font-size="11.00">Request</text>
</a>
</g>
<!-- _PEAR2_Net_RouterOS_Request&#45;&gt;_PEAR2_Net_RouterOS_Message -->
<g id="edge14" class="edge"><title>_PEAR2_Net_RouterOS_Request-&gt;_PEAR2_Net_RouterOS_Message</title>
<path fill="none" stroke="black" d="M375.835,-946.929C343.295,-943.722 290.385,-938.509 242.247,-933.765"/>
<polygon fill="none" stroke="black" points="242.351,-930.259 232.056,-932.761 241.665,-937.225 242.351,-930.259"/>
</g>
<!-- _PEAR2_Net_RouterOS_Response -->
<g id="node14" class="node"><title>_PEAR2_Net_RouterOS_Response</title>
<a xlink:href="db_Response.html" xlink:title="Response" target="_parent">
<polygon fill="none" stroke="black" points="443.5,-914 372.5,-914 372.5,-878 443.5,-878 443.5,-914"/>
<text text-anchor="middle" x="408" y="-893.2" font-family="Courier New" font-size="11.00">Response</text>
</a>
</g>
<!-- _PEAR2_Net_RouterOS_Response&#45;&gt;_PEAR2_Net_RouterOS_Message -->
<g id="edge16" class="edge"><title>_PEAR2_Net_RouterOS_Response-&gt;_PEAR2_Net_RouterOS_Message</title>
<path fill="none" stroke="black" d="M372.298,-899.42C339.563,-902.645 288.725,-907.655 242.311,-912.228"/>
<polygon fill="none" stroke="black" points="241.783,-908.763 232.174,-913.227 242.47,-915.73 241.783,-908.763"/>
</g>
<!-- _PEAR2_Net_RouterOS_ResponseCollection -->
<g id="node15" class="node"><title>_PEAR2_Net_RouterOS_ResponseCollection</title>
<a xlink:href="db_ResponseCollection.html" xlink:title="ResponseCollection" target="_parent">
<polygon fill="none" stroke="black" points="477,-482 339,-482 339,-446 477,-446 477,-482"/>
<text text-anchor="middle" x="408" y="-461.2" font-family="Courier New" font-size="11.00">ResponseCollection</text>
</a>
</g>
<!-- _ArrayAccess -->
<g id="node37" class="node"><title>_ArrayAccess</title>
<ellipse fill="none" stroke="black" cx="132" cy="-18" rx="60.3893" ry="18"/>
<text text-anchor="middle" x="132" y="-14.3" font-family="Times New Roman,serif" font-size="14.00" fill="gray">\ArrayAccess</text>
</g>
<!-- _PEAR2_Net_RouterOS_ResponseCollection&#45;&gt;_ArrayAccess -->
<g id="edge30" class="edge"><title>_PEAR2_Net_RouterOS_ResponseCollection-&gt;_ArrayAccess</title>
<path fill="none" stroke="black" stroke-dasharray="1,5" d="M405.823,-445.997C400.569,-381.036 373.511,-156.665 246,-45 233.622,-34.1605 217.66,-27.4875 201.654,-23.4262"/>
<polygon fill="none" stroke="black" points="202.235,-19.97 191.714,-21.2211 200.719,-26.8039 202.235,-19.97"/>
</g>
<!-- _SeekableIterator -->
<g id="node39" class="node"><title>_SeekableIterator</title>
<ellipse fill="none" stroke="black" cx="132" cy="-126" rx="71.4873" ry="18"/>
<text text-anchor="middle" x="132" y="-122.3" font-family="Times New Roman,serif" font-size="14.00" fill="gray">\SeekableIterator</text>
</g>
<!-- _PEAR2_Net_RouterOS_ResponseCollection&#45;&gt;_SeekableIterator -->
<g id="edge32" class="edge"><title>_PEAR2_Net_RouterOS_ResponseCollection-&gt;_SeekableIterator</title>
<path fill="none" stroke="black" stroke-dasharray="1,5" d="M403.191,-445.876C390.896,-392.062 347.044,-232.041 246,-153 235.261,-144.6 222.316,-138.753 209.077,-134.697"/>
<polygon fill="none" stroke="black" points="209.982,-131.316 199.413,-132.05 208.133,-138.068 209.982,-131.316"/>
</g>
<!-- _Countable -->
<g id="node41" class="node"><title>_Countable</title>
<ellipse fill="none" stroke="black" cx="132" cy="-72" rx="50.0912" ry="18"/>
<text text-anchor="middle" x="132" y="-68.3" font-family="Times New Roman,serif" font-size="14.00" fill="gray">\Countable</text>
</g>
<!-- _PEAR2_Net_RouterOS_ResponseCollection&#45;&gt;_Countable -->
<g id="edge34" class="edge"><title>_PEAR2_Net_RouterOS_ResponseCollection-&gt;_Countable</title>
<path fill="none" stroke="black" stroke-dasharray="1,5" d="M404.675,-445.834C396.027,-386.095 360.106,-194.131 246,-99 230.898,-86.4093 210.913,-79.4924 191.953,-75.7539"/>
<polygon fill="none" stroke="black" points="192.31,-72.2643 181.864,-74.0317 191.132,-79.1645 192.31,-72.2643"/>
</g>
<!-- _PEAR2_Net_RouterOS_SocketException -->
<g id="node16" class="node"><title>_PEAR2_Net_RouterOS_SocketException</title>
<a xlink:href="db_SocketException.html" xlink:title="SocketException" target="_parent">
<polygon fill="none" stroke="black" points="467,-806 349,-806 349,-770 467,-770 467,-806"/>
<text text-anchor="middle" x="408" y="-785.2" font-family="Courier New" font-size="11.00">SocketException</text>
</a>
</g>
<!-- _PEAR2_Net_RouterOS_SocketException&#45;&gt;_PEAR2_Net_RouterOS_Exception -->
<g id="edge36" class="edge"><title>_PEAR2_Net_RouterOS_SocketException-&gt;_PEAR2_Net_RouterOS_Exception</title>
<path fill="none" stroke="black" stroke-dasharray="1,5" d="M348.837,-772.502C338.414,-769.122 327.767,-765.262 318,-761 263.324,-737.14 204.533,-700.779 168.251,-676.95"/>
<polygon fill="none" stroke="black" points="169.799,-673.777 159.528,-671.177 165.935,-679.615 169.799,-673.777"/>
</g>
<!-- _PEAR2_Net_RouterOS_SocketException&#45;&gt;_RuntimeException -->
<g id="edge18" class="edge"><title>_PEAR2_Net_RouterOS_SocketException-&gt;_RuntimeException</title>
<path fill="none" stroke="black" d="M348.774,-779.926C337.268,-775.888 326.224,-769.89 318,-761 216.945,-651.758 345.413,-544.738 246,-434 236.002,-422.863 222.635,-414.985 208.602,-409.415"/>
<polygon fill="none" stroke="black" points="209.408,-405.986 198.813,-405.915 207.051,-412.577 209.408,-405.986"/>
</g>
<!-- _PEAR2_Net_RouterOS_UnexpectedValueException -->
<g id="node17" class="node"><title>_PEAR2_Net_RouterOS_UnexpectedValueException</title>
<a xlink:href="db_UnexpectedValueException.html" xlink:title="UnexpectedValueException" target="_parent">
<polygon fill="none" stroke="black" points="497.5,-536 318.5,-536 318.5,-500 497.5,-500 497.5,-536"/>
<text text-anchor="middle" x="408" y="-515.2" font-family="Courier New" font-size="11.00">UnexpectedValueException</text>
</a>
</g>
<!-- _PEAR2_Net_RouterOS_UnexpectedValueException&#45;&gt;_PEAR2_Net_RouterOS_Exception -->
<g id="edge38" class="edge"><title>_PEAR2_Net_RouterOS_UnexpectedValueException-&gt;_PEAR2_Net_RouterOS_Exception</title>
<path fill="none" stroke="black" stroke-dasharray="1,5" d="M334.436,-536.03C328.678,-538.642 323.118,-541.616 318,-545 276.417,-572.492 288.934,-605.669 246,-631 226.399,-642.564 201.879,-648.194 180.693,-650.88"/>
<polygon fill="none" stroke="black" points="180.161,-647.417 170.597,-651.975 180.916,-654.376 180.161,-647.417"/>
</g>
<!-- _UnexpectedValueException -->
<g id="node31" class="node"><title>_UnexpectedValueException</title>
<ellipse fill="none" stroke="black" cx="132" cy="-180" rx="113.98" ry="18"/>
<text text-anchor="middle" x="132" y="-176.3" font-family="Times New Roman,serif" font-size="14.00" fill="gray">\UnexpectedValueException</text>
</g>
<!-- _PEAR2_Net_RouterOS_UnexpectedValueException&#45;&gt;_UnexpectedValueException -->
<g id="edge20" class="edge"><title>_PEAR2_Net_RouterOS_UnexpectedValueException-&gt;_UnexpectedValueException</title>
<path fill="none" stroke="black" d="M328.795,-499.95C324.877,-497.353 321.234,-494.387 318,-491 228.078,-396.819 338.707,-298.441 246,-207 241.477,-202.538 236.355,-198.766 230.852,-195.58"/>
<polygon fill="none" stroke="black" points="232.421,-192.452 221.921,-191.043 229.251,-198.693 232.421,-192.452"/>
</g>
</g>
<script xlink:href="js/SVGPan.js"/></svg>
