<?xml version="1.0" encoding="UTF-8" standalone="no"?>
<!DOCTYPE svg PUBLIC "-//W3C//DTD SVG 1.1//EN" "http://www.w3.org/Graphics/SVG/1.1/DTD/svg11.dtd">
<!-- Generated by graphviz version 2.28.0 (20110507.0327)
 -->
<!-- Title: G Pages: 1 -->
<svg xmlns="http://www.w3.org/2000/svg" xmlns:xlink="http://www.w3.org/1999/xlink" width="526pt" height="1176pt">
<g id="viewport" class="graph" transform="scale(1 1) rotate(0) translate(4 1172)">
<title>G</title>
<polygon fill="white" stroke="white" points="-4,5 -4,-1172 523,-1172 523,5 -4,5"/>
<g id="graph2" class="cluster"><title>cluster_PEAR2</title>
<polyline fill="none" stroke="gray" points="62,-422 498,-422 "/>
<path fill="none" stroke="gray" d="M498,-422C504,-422 510,-428 510,-434"/>
<polyline fill="none" stroke="gray" points="510,-434 510,-1148 "/>
<path fill="none" stroke="gray" d="M510,-1148C510,-1154 504,-1160 498,-1160"/>
<polyline fill="none" stroke="gray" points="498,-1160 62,-1160 "/>
<path fill="none" stroke="gray" d="M62,-1160C56,-1160 50,-1154 50,-1148"/>
<polyline fill="none" stroke="gray" points="50,-1148 50,-434 "/>
<path fill="none" stroke="gray" d="M50,-434C50,-428 56,-422 62,-422"/>
<text text-anchor="middle" x="280" y="-1147.2" font-family="Times New Roman,serif" font-size="11.00" fill="gray">PEAR2</text>
</g>
<g id="graph3" class="cluster"><title>cluster_PEAR2_Net</title>
<polyline fill="none" stroke="gray" points="70,-430 490,-430 "/>
<path fill="none" stroke="gray" d="M490,-430C496,-430 502,-436 502,-442"/>
<polyline fill="none" stroke="gray" points="502,-442 502,-1120 "/>
<path fill="none" stroke="gray" d="M502,-1120C502,-1126 496,-1132 490,-1132"/>
<polyline fill="none" stroke="gray" points="490,-1132 70,-1132 "/>
<path fill="none" stroke="gray" d="M70,-1132C64,-1132 58,-1126 58,-1120"/>
<polyline fill="none" stroke="gray" points="58,-1120 58,-442 "/>
<path fill="none" stroke="gray" d="M58,-442C58,-436 64,-430 70,-430"/>
<text text-anchor="middle" x="280" y="-1119.2" font-family="Times New Roman,serif" font-size="11.00" fill="gray">Net</text>
</g>
<g id="graph4" class="cluster"><title>cluster_PEAR2_Net_RouterOS</title>
<polyline fill="none" stroke="gray" points="78,-438 482,-438 "/>
<path fill="none" stroke="gray" d="M482,-438C488,-438 494,-444 494,-450"/>
<polyline fill="none" stroke="gray" points="494,-450 494,-1092 "/>
<path fill="none" stroke="gray" d="M494,-1092C494,-1098 488,-1104 482,-1104"/>
<polyline fill="none" stroke="gray" points="482,-1104 78,-1104 "/>
<path fill="none" stroke="gray" d="M78,-1104C72,-1104 66,-1098 66,-1092"/>
<polyline fill="none" stroke="gray" points="66,-1092 66,-450 "/>
<path fill="none" stroke="gray" d="M66,-450C66,-444 72,-438 78,-438"/>
<text text-anchor="middle" x="280" y="-1091.2" font-family="Times New Roman,serif" font-size="11.00" fill="gray">RouterOS</text>
</g>
<!-- _PEAR2_Net_RouterOS_Client -->
<g id="node4" class="node"><title>_PEAR2_Net_RouterOS_Client</title>
<a xlink:href="db_Client.html" xlink:title="Client" target="_parent">
<polygon fill="none" stroke="black" points="424.5,-1076 367.5,-1076 367.5,-1040 424.5,-1040 424.5,-1076"/>
<text text-anchor="middle" x="396" y="-1055.2" font-family="Courier New" font-size="11.00">Client</text>
</a>
</g>
<!-- _PEAR2_Net_RouterOS_Communicator -->
<g id="node5" class="node"><title>_PEAR2_Net_RouterOS_Communicator</title>
<a xlink:href="db_Communicator.html" xlink:title="Communicator" target="_parent">
<polygon fill="none" stroke="black" points="445,-1022 347,-1022 347,-986 445,-986 445,-1022"/>
<text text-anchor="middle" x="396" y="-1001.2" font-family="Courier New" font-size="11.00">Communicator</text>
</a>
</g>
<!-- _PEAR2_Net_RouterOS_DataFlowException -->
<g id="node6" class="node"><title>_PEAR2_Net_RouterOS_DataFlowException</title>
<a xlink:href="db_DataFlowException.html" xlink:title="DataFlowException" target="_parent">
<polygon fill="none" stroke="black" points="461.5,-860 330.5,-860 330.5,-824 461.5,-824 461.5,-860"/>
<text text-anchor="middle" x="396" y="-839.2" font-family="Courier New" font-size="11.00">DataFlowException</text>
</a>
</g>
<!-- _PEAR2_Net_RouterOS_Exception -->
<g id="node7" class="node"><title>_PEAR2_Net_RouterOS_Exception</title>
<a xlink:href="db_Exception.html" xlink:title="Exception" target="_parent">
<polygon fill="none" stroke="black" points="155.5,-671 78.5,-671 78.5,-635 155.5,-635 155.5,-671"/>
<text text-anchor="middle" x="117" y="-650.2" font-family="Courier New" font-size="11.00">Exception</text>
</a>
</g>
<!-- _PEAR2_Net_RouterOS_DataFlowException&#45;&gt;_PEAR2_Net_RouterOS_Exception -->
<g id="edge22" class="edge"><title>_PEAR2_Net_RouterOS_DataFlowException-&gt;_PEAR2_Net_RouterOS_Exception</title>
<path fill="none" stroke="black" stroke-dasharray="1,5" d="M330.479,-825.947C322.016,-822.833 313.64,-819.202 306,-815 238.791,-778.03 174.136,-714.13 140.989,-678.638"/>
<polygon fill="none" stroke="black" points="143.379,-676.066 134.022,-671.096 138.237,-680.816 143.379,-676.066"/>
</g>
<!-- _RuntimeException -->
<g id="node20" class="node"><title>_RuntimeException</title>
<ellipse fill="none" stroke="black" cx="117" cy="-396" rx="82.5854" ry="18"/>
<text text-anchor="middle" x="117" y="-392.3" font-family="Times New Roman,serif" font-size="14.00" fill="gray">\\RuntimeException</text>
</g>
<!-- _PEAR2_Net_RouterOS_DataFlowException&#45;&gt;_RuntimeException -->
<g id="edge6" class="edge"><title>_PEAR2_Net_RouterOS_DataFlowException-&gt;_RuntimeException</title>
<path fill="none" stroke="black" d="M330.204,-831.627C321.077,-827.699 312.579,-822.33 306,-815 190.884,-686.758 347.697,-563.502 234,-434 224.117,-422.743 210.847,-414.805 196.815,-409.212"/>
<polygon fill="none" stroke="black" points="197.605,-405.778 187.011,-405.702 195.246,-412.368 197.605,-405.778"/>
</g>
<!-- _PEAR2_Net_RouterOS_InvalidArgumentException -->
<g id="node8" class="node"><title>_PEAR2_Net_RouterOS_InvalidArgumentException</title>
<a xlink:href="db_InvalidArgumentException.html" xlink:title="InvalidArgumentException" target="_parent">
<polygon fill="none" stroke="black" points="485.5,-698 306.5,-698 306.5,-662 485.5,-662 485.5,-698"/>
<text text-anchor="middle" x="396" y="-677.2" font-family="Courier New" font-size="11.00">InvalidArgumentException</text>
</a>
</g>
<!-- _PEAR2_Net_RouterOS_InvalidArgumentException&#45;&gt;_PEAR2_Net_RouterOS_Exception -->
<g id="edge24" class="edge"><title>_PEAR2_Net_RouterOS_InvalidArgumentException-&gt;_PEAR2_Net_RouterOS_Exception</title>
<path fill="none" stroke="black" stroke-dasharray="1,5" d="M306.212,-671.346C259.781,-666.82 204.755,-661.456 166.234,-657.702"/>
<polygon fill="none" stroke="black" points="166.12,-654.174 155.828,-656.687 165.441,-661.141 166.12,-654.174"/>
</g>
<!-- _InvalidArgumentException -->
<g id="node22" class="node"><title>_InvalidArgumentException</title>
<ellipse fill="none" stroke="black" cx="117" cy="-342" rx="112.38" ry="18"/>
<text text-anchor="middle" x="117" y="-338.3" font-family="Times New Roman,serif" font-size="14.00" fill="gray">\\InvalidArgumentException</text>
</g>
<!-- _PEAR2_Net_RouterOS_InvalidArgumentException&#45;&gt;_InvalidArgumentException -->
<g id="edge8" class="edge"><title>_PEAR2_Net_RouterOS_InvalidArgumentException-&gt;_InvalidArgumentException</title>
<path fill="none" stroke="black" d="M316.795,-661.95C312.877,-659.353 309.234,-656.387 306,-653 216.078,-558.819 326.974,-460.169 234,-369 229.14,-364.234 223.611,-360.247 217.666,-356.918"/>
<polygon fill="none" stroke="black" points="219.205,-353.775 208.688,-352.497 216.113,-360.055 219.205,-353.775"/>
</g>
<!-- _PEAR2_Net_RouterOS_LengthException -->
<g id="node9" class="node"><title>_PEAR2_Net_RouterOS_LengthException</title>
<a xlink:href="db_LengthtException.html" xlink:title="LengthException" target="_parent">
<polygon fill="none" stroke="black" points="455,-644 337,-644 337,-608 455,-608 455,-644"/>
<text text-anchor="middle" x="396" y="-623.2" font-family="Courier New" font-size="11.00">LengthException</text>
</a>
</g>
<!-- _PEAR2_Net_RouterOS_LengthException&#45;&gt;_PEAR2_Net_RouterOS_Exception -->
<g id="edge26" class="edge"><title>_PEAR2_Net_RouterOS_LengthException-&gt;_PEAR2_Net_RouterOS_Exception</title>
<path fill="none" stroke="black" stroke-dasharray="1,5" d="M336.932,-631.66C286.089,-636.616 213.117,-643.729 165.639,-648.356"/>
<polygon fill="none" stroke="black" points="165.232,-644.879 155.619,-649.333 165.911,-651.846 165.232,-644.879"/>
</g>
<!-- _LengthException -->
<g id="node24" class="node"><title>_LengthException</title>
<ellipse fill="none" stroke="black" cx="117" cy="-288" rx="77.1866" ry="18"/>
<text text-anchor="middle" x="117" y="-284.3" font-family="Times New Roman,serif" font-size="14.00" fill="gray">\\LengthException</text>
</g>
<!-- _PEAR2_Net_RouterOS_LengthException&#45;&gt;_LengthException -->
<g id="edge10" class="edge"><title>_PEAR2_Net_RouterOS_LengthException-&gt;_LengthException</title>
<path fill="none" stroke="black" d="M336.982,-617.73C325.464,-613.703 314.363,-607.759 306,-599 216.078,-504.819 326.974,-406.169 234,-315 224.972,-306.147 213.638,-299.983 201.614,-295.728"/>
<polygon fill="none" stroke="black" points="202.443,-292.321 191.855,-292.71 200.375,-299.008 202.443,-292.321"/>
</g>
<!-- _PEAR2_Net_RouterOS_Message -->
<g id="node10" class="node"><title>_PEAR2_Net_RouterOS_Message</title>
<a xlink:href="db_Message.html" xlink:title="«abstract»&lt;br/&gt;Message" target="_parent">
<polygon fill="none" stroke="black" points="159.5,-941 74.5,-941 74.5,-905 159.5,-905 159.5,-941"/>
<text text-anchor="start" x="83" y="-926.7" font-family="Courier New" font-size="11.00">«abstract»</text>
<text text-anchor="start" x="93" y="-915.7" font-family="Courier New" font-size="11.00">Message</text>
</a>
</g>
<!-- _PEAR2_Net_RouterOS_NotSupportedException -->
<g id="node11" class="node"><title>_PEAR2_Net_RouterOS_NotSupportedException</title>
<a xlink:href="db_NotSupportedException.html" xlink:title="NotSupportedException" target="_parent">
<polygon fill="none" stroke="black" points="475,-590 317,-590 317,-554 475,-554 475,-590"/>
<text text-anchor="middle" x="396" y="-569.2" font-family="Courier New" font-size="11.00">NotSupportedException</text>
</a>
</g>
<!-- _PEAR2_Net_RouterOS_NotSupportedException&#45;&gt;_PEAR2_Net_RouterOS_Exception -->
<g id="edge28" class="edge"><title>_PEAR2_Net_RouterOS_NotSupportedException-&gt;_PEAR2_Net_RouterOS_Exception</title>
<path fill="none" stroke="black" stroke-dasharray="1,5" d="M331.951,-590.067C323.177,-592.888 314.323,-595.902 306,-599 273.182,-611.217 267.425,-620.557 234,-631 211.974,-637.882 186.887,-642.965 165.691,-646.502"/>
<polygon fill="none" stroke="black" points="164.949,-643.076 155.629,-648.114 166.057,-649.988 164.949,-643.076"/>
</g>
<!-- _Exception -->
<g id="node26" class="node"><title>_Exception</title>
<ellipse fill="none" stroke="black" cx="117" cy="-234" rx="51.9908" ry="18"/>
<text text-anchor="middle" x="117" y="-230.3" font-family="Times New Roman,serif" font-size="14.00" fill="gray">\\Exception</text>
</g>
<!-- _PEAR2_Net_RouterOS_NotSupportedException&#45;&gt;_Exception -->
<g id="edge12" class="edge"><title>_PEAR2_Net_RouterOS_NotSupportedException-&gt;_Exception</title>
<path fill="none" stroke="black" d="M316.795,-553.95C312.877,-551.353 309.234,-548.387 306,-545 216.078,-450.819 326.974,-352.169 234,-261 219.413,-246.696 198.805,-239.411 178.998,-235.859"/>
<polygon fill="none" stroke="black" points="179.47,-232.39 169.06,-234.362 178.427,-239.312 179.47,-232.39"/>
</g>
<!-- _PEAR2_Net_RouterOS_Query -->
<g id="node12" class="node"><title>_PEAR2_Net_RouterOS_Query</title>
<a xlink:href="db_Query.html" xlink:title="Query" target="_parent">
<polygon fill="none" stroke="black" points="423,-752 369,-752 369,-716 423,-716 423,-752"/>
<text text-anchor="middle" x="396" y="-731.2" font-family="Courier New" font-size="11.00">Query</text>
</a>
</g>
<!-- _PEAR2_Net_RouterOS_Request -->
<g id="node13" class="node"><title>_PEAR2_Net_RouterOS_Request</title>
<a xlink:href="db_Request.html" xlink:title="Request" target="_parent">
<polygon fill="none" stroke="black" points="428,-968 364,-968 364,-932 428,-932 428,-968"/>
<text text-anchor="middle" x="396" y="-947.2" font-family="Courier New" font-size="11.00">Request</text>
</a>
</g>
<!-- _PEAR2_Net_RouterOS_Request&#45;&gt;_PEAR2_Net_RouterOS_Message -->
<g id="edge14" class="edge"><title>_PEAR2_Net_RouterOS_Request-&gt;_PEAR2_Net_RouterOS_Message</title>
<path fill="none" stroke="black" d="M363.763,-946.955C316.744,-942.372 227.227,-933.647 170.188,-928.087"/>
<polygon fill="none" stroke="black" points="170.225,-924.574 159.933,-927.087 169.546,-931.541 170.225,-924.574"/>
</g>
<!-- _PEAR2_Net_RouterOS_Response -->
<g id="node14" class="node"><title>_PEAR2_Net_RouterOS_Response</title>
<a xlink:href="db_Response.html" xlink:title="Response" target="_parent">
<polygon fill="none" stroke="black" points="431.5,-914 360.5,-914 360.5,-878 431.5,-878 431.5,-914"/>
<text text-anchor="middle" x="396" y="-893.2" font-family="Courier New" font-size="11.00">Response</text>
</a>
</g>
<!-- _PEAR2_Net_RouterOS_Response&#45;&gt;_PEAR2_Net_RouterOS_Message -->
<g id="edge16" class="edge"><title>_PEAR2_Net_RouterOS_Response-&gt;_PEAR2_Net_RouterOS_Message</title>
<path fill="none" stroke="black" d="M360.478,-899.365C312.555,-904.036 225.494,-912.522 169.773,-917.954"/>
<polygon fill="none" stroke="black" points="169.363,-914.477 159.75,-918.931 170.042,-921.444 169.363,-914.477"/>
</g>
<!-- _PEAR2_Net_RouterOS_ResponseCollection -->
<g id="node15" class="node"><title>_PEAR2_Net_RouterOS_ResponseCollection</title>
<a xlink:href="db_ResponseCollection.html" xlink:title="ResponseCollection" target="_parent">
<polygon fill="none" stroke="black" points="465,-482 327,-482 327,-446 465,-446 465,-482"/>
<text text-anchor="middle" x="396" y="-461.2" font-family="Courier New" font-size="11.00">ResponseCollection</text>
</a>
</g>
<!-- _ArrayAccess -->
<g id="node37" class="node"><title>_ArrayAccess</title>
<ellipse fill="none" stroke="black" cx="117" cy="-18" rx="63.0888" ry="18"/>
<text text-anchor="middle" x="117" y="-14.3" font-family="Times New Roman,serif" font-size="14.00" fill="gray">\\ArrayAccess</text>
</g>
<!-- _PEAR2_Net_RouterOS_ResponseCollection&#45;&gt;_ArrayAccess -->
<g id="edge30" class="edge"><title>_PEAR2_Net_RouterOS_ResponseCollection-&gt;_ArrayAccess</title>
<path fill="none" stroke="black" stroke-dasharray="1,5" d="M393.845,-445.972C388.667,-380.924 361.838,-156.292 234,-45 221.473,-34.094 205.386,-27.3738 189.206,-23.2863"/>
<polygon fill="none" stroke="black" points="189.671,-19.8047 179.152,-21.0676 188.163,-26.6403 189.671,-19.8047"/>
</g>
<!-- _SeekableIterator -->
<g id="node39" class="node"><title>_SeekableIterator</title>
<ellipse fill="none" stroke="black" cx="117" cy="-126" rx="74.187" ry="18"/>
<text text-anchor="middle" x="117" y="-122.3" font-family="Times New Roman,serif" font-size="14.00" fill="gray">\\SeekableIterator</text>
</g>
<!-- _PEAR2_Net_RouterOS_ResponseCollection&#45;&gt;_SeekableIterator -->
<g id="edge32" class="edge"><title>_PEAR2_Net_RouterOS_ResponseCollection-&gt;_SeekableIterator</title>
<path fill="none" stroke="black" stroke-dasharray="1,5" d="M391.213,-445.849C378.978,-391.957 335.275,-231.745 234,-153 223.163,-144.574 210.146,-138.703 196.808,-134.627"/>
<polygon fill="none" stroke="black" points="197.635,-131.225 187.066,-131.966 195.791,-137.977 197.635,-131.225"/>
</g>
<!-- _Countable -->
<g id="node41" class="node"><title>_Countable</title>
<ellipse fill="none" stroke="black" cx="117" cy="-72" rx="52.7911" ry="18"/>
<text text-anchor="middle" x="117" y="-68.3" font-family="Times New Roman,serif" font-size="14.00" fill="gray">\\Countable</text>
</g>
<!-- _PEAR2_Net_RouterOS_ResponseCollection&#45;&gt;_Countable -->
<g id="edge34" class="edge"><title>_PEAR2_Net_RouterOS_ResponseCollection-&gt;_Countable</title>
<path fill="none" stroke="black" stroke-dasharray="1,5" d="M392.697,-445.808C384.117,-385.987 348.384,-193.796 234,-99 218.748,-86.3599 198.666,-79.3991 179.506,-75.637"/>
<polygon fill="none" stroke="black" points="180.047,-72.1788 169.6,-73.9482 178.87,-79.0792 180.047,-72.1788"/>
</g>
<!-- _PEAR2_Net_RouterOS_SocketException -->
<g id="node16" class="node"><title>_PEAR2_Net_RouterOS_SocketException</title>
<a xlink:href="db_SocketException.html" xlink:title="SocketException" target="_parent">
<polygon fill="none" stroke="black" points="455,-806 337,-806 337,-770 455,-770 455,-806"/>
<text text-anchor="middle" x="396" y="-785.2" font-family="Courier New" font-size="11.00">SocketException</text>
</a>
</g>
<!-- _PEAR2_Net_RouterOS_SocketException&#45;&gt;_PEAR2_Net_RouterOS_Exception -->
<g id="edge36" class="edge"><title>_PEAR2_Net_RouterOS_SocketException-&gt;_PEAR2_Net_RouterOS_Exception</title>
<path fill="none" stroke="black" stroke-dasharray="1,5" d="M336.862,-772.446C326.436,-769.071 315.782,-765.228 306,-761 250.342,-736.942 190.291,-700.399 153.413,-676.608"/>
<polygon fill="none" stroke="black" points="155.297,-673.658 145.005,-671.145 151.483,-679.528 155.297,-673.658"/>
</g>
<!-- _PEAR2_Net_RouterOS_SocketException&#45;&gt;_RuntimeException -->
<g id="edge18" class="edge"><title>_PEAR2_Net_RouterOS_SocketException-&gt;_RuntimeException</title>
<path fill="none" stroke="black" d="M336.774,-779.926C325.268,-775.888 314.224,-769.89 306,-761 204.945,-651.758 333.846,-544.348 234,-434 223.794,-422.721 210.192,-414.779 195.901,-409.19"/>
<polygon fill="none" stroke="black" points="197.034,-405.879 186.439,-405.846 194.701,-412.479 197.034,-405.879"/>
</g>
<!-- _PEAR2_Net_RouterOS_UnexpectedValueException -->
<g id="node17" class="node"><title>_PEAR2_Net_RouterOS_UnexpectedValueException</title>
<a xlink:href="db_UnexpectedValueException.html" xlink:title="UnexpectedValueException" target="_parent">
<polygon fill="none" stroke="black" points="485.5,-536 306.5,-536 306.5,-500 485.5,-500 485.5,-536"/>
<text text-anchor="middle" x="396" y="-515.2" font-family="Courier New" font-size="11.00">UnexpectedValueException</text>
</a>
</g>
<!-- _PEAR2_Net_RouterOS_UnexpectedValueException&#45;&gt;_PEAR2_Net_RouterOS_Exception -->
<g id="edge38" class="edge"><title>_PEAR2_Net_RouterOS_UnexpectedValueException-&gt;_PEAR2_Net_RouterOS_Exception</title>
<path fill="none" stroke="black" stroke-dasharray="1,5" d="M322.436,-536.03C316.678,-538.642 311.118,-541.616 306,-545 264.417,-572.492 276.995,-605.774 234,-631 213.472,-643.044 187.702,-648.689 165.669,-651.261"/>
<polygon fill="none" stroke="black" points="165.124,-647.798 155.517,-652.265 165.813,-654.764 165.124,-647.798"/>
</g>
<!-- _UnexpectedValueException -->
<g id="node31" class="node"><title>_UnexpectedValueException</title>
<ellipse fill="none" stroke="black" cx="117" cy="-180" rx="116.18" ry="18"/>
<text text-anchor="middle" x="117" y="-176.3" font-family="Times New Roman,serif" font-size="14.00" fill="gray">\\UnexpectedValueException</text>
</g>
<!-- _PEAR2_Net_RouterOS_UnexpectedValueException&#45;&gt;_UnexpectedValueException -->
<g id="edge20" class="edge"><title>_PEAR2_Net_RouterOS_UnexpectedValueException-&gt;_UnexpectedValueException</title>
<path fill="none" stroke="black" d="M316.795,-499.95C312.877,-497.353 309.234,-494.387 306,-491 216.078,-396.819 326.974,-298.169 234,-207 229.446,-202.535 224.306,-198.754 218.787,-195.556"/>
<polygon fill="none" stroke="black" points="220.331,-192.415 209.831,-190.999 217.156,-198.654 220.331,-192.415"/>
</g>
</g>
<script xlink:href="js/SVGPan.js"/></svg>
